<svg width="1200" height="675" viewBox="0 0 1200 675" xmlns="http://www.w3.org/2000/svg">
  <rect width="1200" height="675" fill="#f8fafc"/>
  <rect x="80" y="70" width="1040" height="535" rx="28" fill="#ffffff" stroke="#e2e8f0" stroke-width="2"/>
  <rect x="140" y="140" width="920" height="360" rx="24" fill="#f1f5f9"/>
  <circle cx="210" cy="220" r="16" fill="#f97316"/>
  <circle cx="260" cy="260" r="16" fill="#22c55e"/>
  <circle cx="310" cy="220" r="16" fill="#3b82f6"/>
  <path d="M260 330 C360 250, 440 410, 540 330 C640 250, 720 410, 820 330" stroke="#0f172a" stroke-width="6" fill="none"/>
  <rect x="160" y="520" width="260" height="48" rx="24" fill="#0f172a"/>
  <rect x="450" y="520" width="180" height="48" rx="24" fill="#e2e8f0"/>
  <rect x="650" y="520" width="180" height="48" rx="24" fill="#e2e8f0"/>
  <rect x="850" y="520" width="180" height="48" rx="24" fill="#e2e8f0"/>
  <text x="190" y="552" fill="#ffffff" font-family="Arial, Helvetica, sans-serif" font-size="18">Create Room</text>
  <text x="480" y="552" fill="#475569" font-family="Arial, Helvetica, sans-serif" font-size="18">Draw</text>
  <text x="685" y="552" fill="#475569" font-family="Arial, Helvetica, sans-serif" font-size="18">Share</text>
  <text x="890" y="552" fill="#475569" font-family="Arial, Helvetica, sans-serif" font-size="18">Chat</text>
  <text x="140" y="118" fill="#0f172a" font-family="Arial, Helvetica, sans-serif" font-size="28" font-weight="bold">
    CollabCanvas Pro
  </text>
</svg>

